<?xml version="1.0" standalone="no"?>
<!DOCTYPE svg PUBLIC "-//W3C//DTD SVG 20010904//EN"
 "http://www.w3.org/TR/2001/REC-SVG-20010904/DTD/svg10.dtd">
<svg version="1.0" xmlns="http://www.w3.org/2000/svg"
 width="512.000000pt" height="512.000000pt" viewBox="0 0 512.000000 512.000000"
 preserveAspectRatio="xMidYMid meet">

<g transform="translate(0.000000,512.000000) scale(0.100000,-0.100000)"
fill="#ea5555" stroke="none">
<path d="M2435 4828 c-177 -34 -337 -192 -375 -371 l-10 -53 -58 -10 c-140
-27 -276 -131 -336 -258 -48 -101 -61 -191 -42 -286 23 -107 65 -186 136 -254
66 -63 174 -120 252 -131 l47 -7 11 -52 c35 -171 168 -313 341 -364 32 -9 59
-19 59 -22 0 -3 -16 -23 -35 -45 -72 -82 -71 -158 2 -236 l45 -48 -38 -33
c-40 -35 -64 -82 -64 -125 0 -43 38 -110 76 -133 l34 -22 0 -694 0 -694 -123
0 c-133 0 -167 -11 -167 -53 1 -54 35 -67 174 -67 l116 0 0 -99 0 -100 -180
-3 -180 -3 -31 -31 c-23 -23 -32 -43 -36 -75 -5 -53 11 -86 56 -116 34 -23 39
-23 255 -21 l221 3 5 978 5 977 33 20 c47 29 72 76 72 135 0 56 -18 90 -70
133 l-32 28 36 27 c47 36 66 75 66 132 0 55 -10 77 -58 127 l-35 37 27 11 c15
5 32 10 38 10 6 0 43 15 82 34 128 62 229 189 259 326 l12 52 73 19 c195 49
334 198 363 387 22 149 -25 295 -130 400 -67 68 -134 106 -233 131 l-72 19
-16 63 c-62 252 -312 407 -575 357z m267 -112 c112 -53 207 -170 224 -277 l6
-35 -60 -12 c-32 -7 -87 -26 -120 -43 -61 -30 -158 -117 -189 -170 -10 -16
-20 -29 -24 -29 -4 0 -25 24 -47 54 -73 97 -178 164 -297 191 -47 11 -50 14
-47 41 5 51 59 151 105 198 84 84 174 117 302 112 72 -2 101 -8 147 -30z m218
-458 c-13 -35 -33 -79 -45 -98 -27 -43 -102 -113 -143 -134 -48 -25 -143 -58
-149 -53 -9 9 26 101 60 157 44 73 111 126 209 166 45 18 84 31 87 29 2 -3 -6
-33 -19 -67z m-861 10 c25 -115 87 -211 184 -284 34 -25 62 -50 62 -54 0 -4
-28 -29 -62 -54 -97 -73 -159 -169 -184 -284 -10 -49 -12 -52 -37 -45 -62 15
-110 36 -160 70 -222 152 -219 488 7 632 42 27 143 68 173 70 3 1 11 -22 17
-51z m171 26 c77 -29 161 -96 200 -159 25 -40 72 -157 66 -163 -8 -7 -109 29
-154 55 -94 54 -145 116 -188 229 -28 76 -27 76 76 38z m942 -26 c72 -38 142
-112 174 -183 90 -196 -13 -436 -220 -514 -96 -36 -95 -36 -120 50 -12 42 -37
99 -55 128 -34 53 -112 128 -162 158 -16 10 -29 20 -29 24 0 4 22 21 49 39 95
60 166 157 196 265 9 33 18 65 20 72 5 17 78 -2 147 -39z m-693 -435 c-27 -79
-60 -132 -114 -182 -48 -44 -145 -96 -203 -107 l-33 -7 26 68 c40 107 77 155
164 215 33 23 143 68 168 69 8 1 6 -16 -8 -56z m175 35 c100 -35 168 -87 222
-167 24 -38 67 -151 60 -159 -10 -9 -134 40 -182 72 -65 44 -109 99 -145 184
-29 68 -35 92 -22 92 4 0 34 -10 67 -22z m-84 -194 c68 -101 189 -182 306
-207 l56 -12 -5 -33 c-3 -18 -17 -56 -30 -85 -112 -245 -445 -303 -640 -113
-49 48 -103 147 -109 199 -3 28 0 30 73 51 121 35 205 92 275 187 19 27 39 49
42 49 4 0 18 -16 32 -36z"/>
</g>
</svg>
