<?xml version="1.0" encoding="UTF-8"?>
<svg id="Calque_1" data-name="Calque 1" xmlns="http://www.w3.org/2000/svg" width="68.23mm" height="68.42mm" viewBox="0 0 193.41 193.96">
  <defs>
    <style>
      .cls-1 {
        fill: none;
      }

      .cls-2 {
        fill: #ea5555;
      }

      .cls-3 {
        fill: #fff;
      }

      .cls-4 {
        fill: #275245;
        stroke: #fff;
        stroke-miterlimit: 10;
      }
    </style>
  </defs>
  <circle class="cls-4" cx="96.78" cy="97.11" r="92.55"/>
  <g>
    <path class="cls-3" d="M84.08,81.92c-1.53,1.81-3.77,2.84-6.14,2.84s-4.61-1.04-6.15-2.85c-.23-.27-.64-.31-.91-.08-.27.23-.31.64-.08.91,1.78,2.1,4.38,3.31,7.13,3.31s5.34-1.2,7.12-3.3c.23-.27.2-.68-.07-.91-.27-.23-.68-.2-.91.07Z"/>
    <path class="cls-3" d="M109.92,86.04c2.74,0,5.34-1.2,7.12-3.29.23-.27.2-.68-.07-.91-.27-.23-.68-.2-.91.07-1.53,1.81-3.77,2.84-6.14,2.84s-4.61-1.04-6.15-2.85c-.23-.27-.64-.31-.91-.08s-.31.64-.08.91c1.78,2.1,4.38,3.31,7.13,3.31Z"/>
    <path class="cls-3" d="M88.33,110.02c-.19-.03-.38.02-.52.14s-.23.3-.23.49c0,1.58,2.23,3.32,6.35,3.43.02,0,.05,0,.07,0h.04s.07,0,.08,0c.02,0,.05,0,.07,0,4.13-.11,6.35-1.85,6.35-3.43,0-.19-.08-.37-.23-.49-.14-.12-.34-.17-.52-.14-.58.1-1.37-.29-2.13-.67-1.09-.54-2.41-1.2-3.6-.54-1.19-.65-2.51,0-3.6.54-.76.38-1.55.77-2.13.67ZM91.03,110.51c1.22-.61,2-.95,2.61-.43.24.21.6.21.84,0,.61-.52,1.39-.18,2.61.43.61.3,1.23.61,1.86.75-.6.66-2.12,1.49-4.85,1.55,0,0,0,0-.03,0-.01,0-.04,0-.06,0-2.72-.07-4.24-.89-4.84-1.55.63-.14,1.25-.45,1.86-.75Z"/>
    <path class="cls-3" d="M132.46,100.27c1.39-4.01,2.27-8.26,2.27-12.61,0-5.67-.74-10.79-2.2-15.32v-22.88c0-8.78-8.39-15.92-18.7-15.92h-4.01c-1.82-3.12-5.68-4.58-9.16-3.26-2.31.87-4.14,2.6-5.15,4.85-1,2.22-1.09,4.69-.26,6.97h0c1.56,4.46,8.42,7.13,14.48,9.49,1.72.67,3.37,1.31,4.76,1.95,1.41,2.38,4.01,7.37,6,14.55-1.79-.58-3.22-.83-5.53-.83-8.24,0-15.97,4.41-20.17,11.51,0,0,0,.01,0,.02-.03.06-.05.12-.07.19,0,.02,0,.04-.01.06,0,.02-.01.04-.01.06v19.42h-3.27c-.36,0-.64.29-.64.64s.29.64.64.64h3.91c.36,0,.64-.29.64-.64v-19.86c3.99-6.63,11.24-10.75,18.98-10.75,2.47,0,3.86.31,5.93,1.04,1.61,6.34,2.68,14.23,2.12,23.41-.25,4.02-1.07,8.61-2.2,13.23-.27.32-16.11,19.47-27.15,19.47-.09,0-.19,0-.29,0-10.88-.33-25.76-18.81-26.5-19.75-.87-4.32-1.47-8.75-1.73-12.95-.56-9.14.9-17.34,2.97-24.03.2-.05.38-.1.54-.15.74-.2,1.02-.28,2.3-.28,6.52,0,12.67,2.85,16.89,7.83.13.15.31.23.49.23.15,0,.29-.05.42-.15.27-.23.3-.64.07-.91-4.46-5.27-10.98-8.29-17.87-8.29-1.28,0-1.72.08-2.37.25,2.23-6.71,4.99-11.75,6.68-14.5l-.06-.04c1.08-.45,2.26-.91,3.47-1.39,6.05-2.36,12.91-5.03,14.47-9.48h0c.83-2.28.74-4.75-.26-6.97-1.01-2.25-2.85-3.97-5.15-4.85-1.88-.71-3.92-.65-5.76.18-1.45.65-2.63,1.73-3.41,3.08h-3.53c-10.63,0-19.29,7.14-19.29,15.92v23.27c-1.29,4.1-2.1,9.03-2.1,14.94,0,4.17.81,8.25,2.1,12.12v48.19c0,6.76,5.19,12.69,12.96,14.93,1.27.43,2.59.65,3.93.65.75,0,1.51-.07,2.27-.21,3.27-.6,6.11-2.43,8-5.17,4.62-6.69,3.32-22.73-3.87-27.7-.04-.03-2.86-2.42-6.53-6.4h.01c-2.01-4.3-3.75-9.7-5.06-15.42,1.63,1.91,4.37,4.96,7.62,8,7.17,6.7,13.31,10.18,18.26,10.33.11,0,.22,0,.32,0,4.91,0,11.11-3.33,18.43-9.89,3.39-3.04,6.26-6.11,7.98-8.05-1.72,6.29-3.95,12.42-6.09,17.06-2.68,2.74-4.55,4.32-4.56,4.33-7.24,5-8.54,21.04-3.92,27.73,2.41,3.49,6.31,5.37,10.26,5.37,1.08,0,2.17-.15,3.23-.43v.04c8.2-2.12,13.5-7.9,13.5-14.73v-48.13ZM80.53,42.07c.32.2.66.37,1.03.51.05.02.1.03.15.05-2.38,1.46-5.67,4.26-6.4,8.88-1.5.61-2.86,1.22-3.92,1.84-1.44.83-3.83,2.23-6.41,4.56v-5.79c0-5.53,5.3-10.03,11.8-10.03h3.75ZM82.46,31.62c1.52-.68,3.21-.74,4.77-.15,1.99.75,3.56,2.24,4.44,4.17.87,1.94.94,4.1.19,6.09h0c-1.43,3.86-8.23,6.51-13.7,8.64-.48.19-.96.37-1.43.56,1.16-4.79,5.58-7.28,7.28-8.08,1.78-.24,3.37-1.42,4.05-3.21.39-1.04.36-2.17-.1-3.19s-1.28-1.79-2.32-2.19c-1.78-.68-3.79.23-4.46,2.01-.13.33.04.7.37.83.33.13.7-.04.83-.37.42-1.12,1.68-1.69,2.8-1.26.72.27,1.29.81,1.61,1.51.32.7.34,1.48.07,2.2-.45,1.18-1.43,2-2.57,2.3,0,0-.28.08-.63.11-.54.05-1.1-.02-1.65-.23-2.51-.95-3.77-3.76-2.82-6.27.04-.1.08-.19.12-.28h.01v-.03c.62-1.41,1.72-2.53,3.14-3.17ZM57,49.45c0-8.07,8.07-14.63,18-14.63h2.93c-.73,2.1-.24,4.35,1.1,5.96h-2.25c-7.22,0-13.09,5.08-13.09,11.32v7.03c-2.39,2.42-4.82,5.69-6.69,10.09v-19.77ZM57,147.96v-44.77c1.86,4.47,4.28,8.56,6.69,12.04v31.19c-.25.27-.49.56-.7.87-1.53,2.22-2.11,4.9-1.62,7.55.26,1.44.83,2.76,1.63,3.93-3.74-2.7-6-6.58-6-10.81ZM68.26,143.89c-1.2.22-2.31.7-3.28,1.39v-28.25c.31.43.62.84.93,1.25,2.08,2.72,4.16,5.11,6.01,7.09v18.69c-1.18-.33-2.42-.4-3.66-.17ZM78.22,131.49c6.12,4.23,8.2,19.26,3.59,25.94-1.69,2.45-4.24,4.1-7.18,4.64-1.71.31-3.43.21-5.06-.25h0c-.17-.04-.32-.1-.49-.14-.98-.33-1.93-.8-2.81-1.4-1.93-1.34-3.23-3.34-3.66-5.66-.42-2.31.08-4.65,1.42-6.59,1.05-1.52,2.63-2.54,4.44-2.87,1.82-.33,3.65.06,5.17,1.11,1.19.82,1.98,2.05,2.24,3.47.26,1.42-.05,2.85-.87,4.04-.64.92-1.59,1.54-2.69,1.74-1.1.2-2.21-.04-3.14-.68-.71-.49-1.18-1.23-1.34-2.07-.16-.85.03-1.7.52-2.41.77-1.11,2.3-1.39,3.41-.62.29.2.69.13.9-.16s.13-.69-.16-.9c-1.7-1.17-4.03-.74-5.2.95-.68.99-.94,2.19-.73,3.38s.88,2.22,1.87,2.9c1.2.83,2.66,1.15,4.1.88,1.44-.26,2.69-1.07,3.52-2.28,1.02-1.47,1.4-3.25,1.08-5-.32-1.76-1.31-3.28-2.78-4.3-.38-.26-.78-.48-1.18-.67v-17.82c2.89,2.97,4.95,4.72,5.01,4.77ZM66.92,117.47c-3.55-4.66-7.55-10.92-9.92-17.91v-.04h-.01c-1.28-3.79-2.08-7.79-2.08-11.86,0-20.87,9.78-28.94,17.13-33.2.36-.21.76-.42,1.19-.62-1.79,3.11-4.22,7.95-6.18,14.1-.11.3-.24.72-.23.74-2.09,6.8-3.57,15.11-2.99,24.39.58,9.4,2.87,19.94,5.99,27.99-.95-1.12-1.92-2.31-2.89-3.58ZM131.24,49.45v19.48c-.93-2.13-2.03-4.11-3.32-5.93-1.12-1.58-2.32-2.94-3.5-4.1v-6.8c0-6.24-5.58-11.32-12.45-11.32h-2.66c.36-.43.67-.91.9-1.43.65-1.44.71-3.04.2-4.53h3.42c9.6,0,17.41,6.56,17.41,14.63ZM113.81,51.83c-.74-5.03-4.5-7.93-6.91-9.3.46-.18.73-.46.73-.46h4.35c6.15,0,11.16,4.5,11.16,10.03v5.59c-2.55-2.25-4.89-3.61-6.18-4.35-.47-.27-2.69-1.32-3.15-1.51ZM96.48,41.74h0c-.75-1.99-.69-4.15.19-6.09.87-1.94,2.45-3.42,4.44-4.17,1.56-.59,3.25-.54,4.77.15,1.52.68,2.68,1.92,3.27,3.48.46,1.21.42,2.54-.11,3.72-.53,1.18-1.5,2.09-2.71,2.55-.43.16-.88.24-1.33.24-.09.02-.17,0-.17,0-.47-.02-.94-.13-1.38-.33-.92-.41-1.62-1.16-1.97-2.1-.27-.72-.25-1.5.07-2.2.32-.7.89-1.24,1.61-1.51,1.12-.42,2.38.14,2.8,1.26.13.33.5.5.83.37.33-.13.5-.5.37-.83-.33-.86-.97-1.55-1.82-1.93-.84-.38-1.78-.41-2.65-.08-1.04.39-1.87,1.17-2.32,2.19-.46,1.01-.49,2.15-.1,3.19.48,1.26,1.42,2.26,2.65,2.81.58.26,1.19.4,1.81.44,1.33.58,6.44,3.1,7.65,8.35-.72-.29-1.45-.57-2.21-.87-5.47-2.13-12.27-4.78-13.7-8.63ZM124.27,93.06c.58-9.35-.52-17.38-2.17-23.85.03-.19-.01-.37-.13-.51-1.67-6.39-3.86-11.18-5.43-14.11,7.32,4.29,16.89,12.41,16.89,33.06,0,11.63-6.53,22.64-12.01,29.82-1.66,2.17-3.32,4.13-4.86,5.83,3.62-8.81,7.13-21,7.7-30.24ZM123.13,145.12c-2.28-1.51-5.22-1.8-7.78-.69v-17.93c2.09-2.17,4.59-4.96,7.08-8.22.23-.3.47-.62.7-.93v27.77ZM106.53,157.43c-4.61-6.68-2.53-21.71,3.64-25.98.03-.03,1.59-1.34,3.89-3.64v17.33s-.07.04-.11.07c-1.47,1.02-2.46,2.54-2.78,4.3-.32,1.76.06,3.53,1.08,5,.83,1.2,2.08,2.01,3.52,2.28,1.44.26,2.9-.05,4.1-.88,2.05-1.41,2.56-4.23,1.15-6.28-.57-.82-1.42-1.37-2.4-1.55-.98-.18-1.98.03-2.8.6-.29.2-.37.6-.16.9.2.29.6.36.9.16,1.11-.77,2.64-.49,3.41.62.49.71.67,1.57.52,2.41-.15.85-.63,1.58-1.34,2.07-.92.64-2.04.88-3.14.67-1.1-.2-2.06-.82-2.69-1.74-.82-1.19-1.13-2.62-.87-4.04.26-1.42,1.06-2.65,2.24-3.47,1.52-1.05,3.35-1.45,5.17-1.11,1.82.33,3.39,1.35,4.44,2.87,1.34,1.93,1.84,4.27,1.42,6.59-.42,2.31-1.72,4.32-3.66,5.66-5.06,3.5-12.03,2.22-15.53-2.84ZM125.25,158.9c.86-1.2,1.46-2.57,1.73-4.06.49-2.65-.09-5.33-1.62-7.55-.28-.41-.6-.78-.94-1.12v-30.61c2.41-3.44,4.85-7.51,6.75-11.96v44.8c0,4.16-2.2,7.89-5.92,10.5Z"/>
  </g>
  <g>
    <path class="cls-1" d="M94.53,135.33c.57-.83,1.45-1.43,2.47-1.64-.28-1.11-1.28-1.94-2.47-1.94s-2.2.83-2.47,1.94c1.02.2,1.9.81,2.47,1.64Z"/>
    <path class="cls-2" d="M98.35,133.99l-.23-.04-.04-.23c-.29-1.75-1.78-3.03-3.56-3.03s-3.27,1.27-3.56,3.03l-.04.23-.23.04c-1.75.29-3.03,1.78-3.03,3.56s1.27,3.27,3.03,3.56l.23.04.04.23c.22,1.34,1.2,2.47,2.49,2.87l.49.15-.35.38c-.22.24-.34.54-.34.85,0,.37.17.71.45.96l.29.25-.29.25c-.29.24-.45.59-.45.96,0,.45.25.87.65,1.09l.17.09v10.34h-1.58c-.31,0-.56.22-.56.49s.25.49.56.49h1.58v1.42h-2.18c-.55,0-.99.44-.99.99s.44.99.99.99h3.06v-14.71l.17-.09c.4-.22.65-.64.65-1.09,0-.37-.17-.72-.45-.96l-.29-.25.29-.25c.29-.24.45-.59.45-.96,0-.31-.12-.61-.34-.85l-.35-.38.49-.15c1.3-.4,2.27-1.53,2.49-2.87l.04-.23.23-.04c1.75-.29,3.03-1.78,3.03-3.56s-1.27-3.27-3.03-3.56ZM91.74,133.62c.32-1.29,1.46-2.19,2.78-2.19s2.47.9,2.78,2.19l.08.33-.33.07c-.93.18-1.73.72-2.27,1.5l-.27.39-.27-.39c-.54-.78-1.34-1.32-2.27-1.5l-.33-.07.08-.33ZM97.45,134.62l-.22.63c-.29.82-.93,1.46-1.76,1.76l-.63.22.22-.63c.29-.83.93-1.46,1.76-1.76l.63-.22ZM92.23,134.85c.82.29,1.46.93,1.75,1.75l.22.63-.63-.22c-.82-.29-1.46-.93-1.75-1.75l-.22-.63.63.22ZM90.92,140.42l-.33-.08c-1.29-.32-2.19-1.46-2.19-2.78s.9-2.47,2.19-2.78l.33-.08.07.33c.18.93.72,1.73,1.5,2.27l.39.27-.39.27c-.78.54-1.32,1.34-1.5,2.27l-.07.33ZM91.82,139.84c.29-.82.93-1.46,1.75-1.75l.63-.22-.22.63c-.29.82-.93,1.46-1.75,1.75l-.63.22.22-.63ZM97.31,141.48c-.32,1.29-1.46,2.19-2.78,2.19s-2.47-.9-2.78-2.19l-.08-.33.33-.07c.93-.18,1.73-.72,2.27-1.5l.27-.39.27.39c.54.78,1.34,1.32,2.27,1.5l.33.07-.08.33ZM96.82,140.25c-.82-.29-1.46-.93-1.76-1.76l-.22-.63.63.22c.82.29,1.46.93,1.76,1.76l.22.63-.63-.22ZM98.46,140.33l-.33.08-.07-.33c-.18-.93-.72-1.73-1.5-2.27l-.39-.27.39-.27c.78-.54,1.32-1.34,1.5-2.27l.07-.33.33.08c1.29.32,2.19,1.46,2.19,2.78s-.9,2.47-2.19,2.78Z"/>
  </g>
</svg>