<?xml version="1.0" encoding="UTF-8"?>
<svg id="Calque_1" data-name="Calque 1" xmlns="http://www.w3.org/2000/svg" width="97.2mm" height="30.84mm" viewBox="0 0 275.52 87.43">
  <defs>
    <style>
      .cls-1 {
        fill: #fff;
      }
    </style>
  </defs>
  <g>
    <path class="cls-1" d="M89.39,69.8l.58.34c-.7,1.24-2.46,2.45-4.37,2.45-2.8,0-5.1-2.55-5.1-5.78s2.29-5.78,5.1-5.78c1.89,0,3.69,1.21,4.35,2.48l-.61.31c-.56-1.1-2.12-2.11-3.74-2.11-2.46,0-4.42,2.31-4.42,5.1s1.95,5.1,4.42,5.1c1.63,0,3.16-1.04,3.79-2.11Z"/>
    <path class="cls-1" d="M96.31,66.81c0-3.23,2.31-5.78,5.1-5.78s5.1,2.55,5.1,5.78-2.31,5.78-5.1,5.78-5.1-2.55-5.1-5.78ZM96.99,66.81c0,2.79,1.97,5.1,4.42,5.1s4.42-2.31,4.42-5.1-1.97-5.1-4.42-5.1-4.42,2.31-4.42,5.1Z"/>
    <path class="cls-1" d="M114.5,72.25v.34h-.68v-11.56h.51l.1.14,7.19,10.03.02-9.83v-.34h.68v.34l-.02,10.88v.34h-.51l-.1-.14-7.19-10.03v9.83Z"/>
    <path class="cls-1" d="M138.18,69.8l.58.34c-.7,1.24-2.46,2.45-4.37,2.45-2.8,0-5.1-2.55-5.1-5.78s2.29-5.78,5.1-5.78c1.89,0,3.69,1.21,4.35,2.48l-.61.31c-.56-1.1-2.12-2.11-3.74-2.11-2.46,0-4.42,2.31-4.42,5.1s1.95,5.1,4.42,5.1c1.63,0,3.16-1.04,3.79-2.11Z"/>
    <path class="cls-1" d="M145.8,61.37v-.34h.68v11.56h-.68v-11.22Z"/>
    <path class="cls-1" d="M162.27,61.03h.34v.68h-7.48v4.76h5.47v.68h-5.47v4.76h7.48v.68h-8.16v-11.56h7.82Z"/>
    <path class="cls-1" d="M175.87,67.05c.87.75,1.56,1.87,2.53,5.1l.14.44h-.71l-.07-.24c-1.12-3.67-1.8-4.44-2.84-5.2h-4.32v5.44h-.68v-.34l.02-10.86v-.34h.34l4.73-.02c1.9,0,3.42,1.39,3.42,3.08,0,1.41-1.07,2.6-2.55,2.94ZM173.92,66.47h1.1c1.48,0,2.72-1.04,2.72-2.36s-1.24-2.4-2.74-2.4h-4.4v4.78c1.11,0,2.21-.02,3.31-.02Z"/>
    <path class="cls-1" d="M190.19,67.15v-.68h5.07v.34c0,3.23-2.31,5.78-5.08,5.78s-5.12-2.55-5.12-5.78,2.31-5.78,5.12-5.78c1.92-.02,3.71,1.19,4.37,2.48l-.61.31c-.56-1.12-2.11-2.12-3.76-2.11-2.46,0-4.44,2.31-4.44,5.1s1.97,5.1,4.44,5.1,4.4-2.31,4.4-4.76h-4.39Z"/>
    <path class="cls-1" d="M210.38,61.03h.34v.68h-7.48v4.76h5.47v.68h-5.47v4.76h7.48v.68h-8.16v-11.56h7.82Z"/>
    <path class="cls-1" d="M223.98,67.05c.87.75,1.56,1.87,2.53,5.1l.14.44h-.71l-.07-.24c-1.12-3.67-1.8-4.44-2.84-5.2h-4.32v5.44h-.68v-.34l.02-10.86v-.34h.34l4.73-.02c1.9,0,3.42,1.39,3.42,3.08,0,1.41-1.07,2.6-2.55,2.94ZM222.03,66.47h1.1c1.48,0,2.72-1.04,2.72-2.36s-1.24-2.4-2.74-2.4h-4.4v4.78c1.1,0,2.21-.02,3.31-.02Z"/>
    <path class="cls-1" d="M233.86,61.37v-.34h.68v11.56h-.68v-11.22Z"/>
    <path class="cls-1" d="M250.33,61.03h.34v.68h-7.48v4.76h5.47v.68h-5.47v4.76h7.48v.68h-8.16v-11.56h7.82Z"/>
  </g>
  <g>
    <path class="cls-1" d="M93.36,18.46c-6.9,0-12.6,5.75-13.15,13.23h-6.53v2.39h6.53c.57,7.45,6.26,13.18,13.14,13.18,6.24.06,9.6-3.24,11.4-5.76l-1.92-1.44c-1.56,2.16-4.32,4.86-9.48,4.8-5.69,0-10.19-4.73-10.74-10.78h1.36v-.02h22.58v-1.2c0-8.04-6-14.4-13.2-14.4ZM82.62,31.66c.54-6.06,5.04-10.8,10.74-10.8,6,0,10.8,5.4,10.8,10.8h-21.54Z"/>
    <path class="cls-1" d="M126.58,26.2c0-3.12,3.72-5.34,7.74-5.34s7.74,2.22,7.74,5.34h2.4c0-4.08-4.32-7.74-10.14-7.74s-10.14,3.66-10.14,7.74c.06,8.46,18.9,7.38,18.9,13.32,0,3.18-4.26,5.34-8.76,5.34s-8.76-2.16-8.76-5.34h-2.4c0,4.02,4.62,7.74,11.16,7.74s11.16-3.72,11.16-7.74c.06-8.4-18.9-7.44-18.9-13.32Z"/>
    <path class="cls-1" d="M167.8,21.26v-6.7h-2.4v6.7h-4.86v2.4h4.86v15.74c.06,4.98,3.24,7.86,9.54,7.86h1.2v-2.4h-1.2c-4.38,0-7.08-1.8-7.14-5.46v-15.74h8.34v-2.4h-8.34Z"/>
    <polygon class="cls-1" points="199.68 14.53 198.48 14.53 198.48 16.93 199.68 16.93 199.73 16.93 200.94 16.93 200.94 14.53 199.73 14.53 199.68 14.53"/>
    <polygon class="cls-1" points="198.48 25.78 198.48 45.82 198.48 47.26 200.87 47.26 200.87 45.82 200.87 25.78 200.87 20.34 198.48 20.34 198.48 25.78"/>
    <path class="cls-1" d="M246.27,45.04v-26.58h-2.4v6.12c-2.4-3.72-6.36-6.12-10.8-6.12-7.2,0-13.2,6.36-13.2,14.4s6,14.4,13.2,14.4c4.44,0,8.4-2.4,10.8-6.12v6.12h.07v.12h7.41v-2.34h-5.07ZM233.08,44.86c-6,0-10.8-5.4-10.8-12s4.8-12,10.8-12,10.8,5.4,10.8,12-4.8,12-10.8,12Z"/>
  </g>
  <path class="cls-1" d="M41.84,68.52c4.68-1.45,8.22-5.51,9.01-10.36l.13-.83.83-.13c6.34-1.03,10.94-6.44,10.94-12.85s-4.6-11.82-10.94-12.85l-.83-.13-.13-.83c-1.03-6.34-6.44-10.94-12.85-10.94s-11.82,4.6-12.85,10.94l-.13.83-.83.13c-6.34,1.03-10.94,6.43-10.94,12.85s4.6,11.82,10.94,12.85l.83.13.13.83c.79,4.84,4.32,8.91,9.01,10.36,0,0,1.6.56,3.68.57s4.01-.57,4.01-.57ZM27.94,30.16c1.15-4.65,5.29-7.9,10.06-7.9s8.91,3.25,10.06,7.9l.29,1.18-1.19.24c-3.34.67-6.26,2.59-8.2,5.43l-.96,1.4-.96-1.4c-1.94-2.83-4.86-4.76-8.2-5.43l-1.19-.24.29-1.18ZM48.57,33.78l-.81,2.29c-1.05,2.98-3.36,5.29-6.34,6.34l-2.29.81.81-2.29c1.05-2.98,3.36-5.29,6.34-6.34l2.29-.81ZM29.71,34.59c2.98,1.05,5.29,3.36,6.34,6.34l.81,2.29-2.29-.81c-2.98-1.05-5.29-3.36-6.34-6.34l-.81-2.29,2.29.81ZM24.98,54.71l-1.18-.29c-4.65-1.15-7.9-5.29-7.9-10.06s3.25-8.91,7.9-10.06l1.18-.29.24,1.19c.67,3.34,2.59,6.26,5.43,8.2l1.4.96-1.4.96c-2.83,1.94-4.76,4.86-5.43,8.2l-.24,1.19ZM28.23,52.64c1.05-2.98,3.36-5.29,6.34-6.34l2.29-.81-.81,2.29c-1.05,2.98-3.36,5.29-6.34,6.34l-2.29.81.81-2.29ZM48.06,58.56c-1.15,4.65-5.29,7.9-10.06,7.9s-8.91-3.25-10.06-7.9l-.29-1.18,1.19-.24c3.34-.67,6.26-2.59,8.2-5.43l.96-1.4.96,1.4c1.94,2.83,4.86,4.76,8.2,5.43l1.19.24-.29,1.18ZM46.28,54.13c-2.98-1.05-5.29-3.36-6.34-6.34l-.81-2.29,2.29.81c2.98,1.05,5.29,3.36,6.34,6.34l.81,2.29-2.29-.81ZM52.2,54.42l-1.18.29-.24-1.19c-.67-3.34-2.59-6.26-5.43-8.2l-1.4-.96,1.4-.96c2.83-1.94,4.76-4.85,5.43-8.2l.24-1.19,1.18.29c4.65,1.15,7.9,5.29,7.9,10.06s-3.25,8.91-7.9,10.06Z"/>
</svg>